/* XPM */
static char * cone_small_xpm[] = {
"40 52 26 1",
" 	c None",
".	c #010200",
"+	c #301A03",
"@	c #4D2A06",
"#	c #663807",
"$	c #804508",
"%	c #904F09",
"&	c #A65B0D",
"*	c #B16006",
"=	c #C46A0C",
"-	c #B26E26",
";	c #D5740D",
">	c #C1813D",
",	c #E47D11",
"'	c #F38716",
")	c #C19669",
"!	c #F6952B",
"~	c #C0A68C",
"{	c #F3AC62",
"]	c #BEB7AF",
"^	c #C3C5C2",
"/	c #F1C698",
"(	c #D9DAD7",
"_	c #FEE5C8",
":	c #E8E9E6",
"<	c #FBFDFA",
"                                        ",
"                                        ",
"                                        ",
"                  ;-==                  ",
"                  ,=**                  ",
"                 ,;=**                  ",
"                 ';***&                 ",
"                 !;***&                 ",
"                ;!;****                 ",
"                ,!=****                 ",
"                '!=****&                ",
"                !,=****-                ",
"               <</>>>)]^                ",
"               <<:(^^^^^                ",
"               <<:(^^^^^]               ",
"               <<:(^^^^^^               ",
"              :<<:(^^^^^^               ",
"              <<<:(^^^^^^               ",
"              /<<:(^^^^^^-              ",
"             ;'!/((^^^~>**              ",
"             ,'!;==*******              ",
"            ;''!;==*******%             ",
"            ''',;==*******&             ",
"            ''',;==********-            ",
"            !'!;;==*******-~            ",
"           :<_!;;==******)^^            ",
"           <<<:{;==****&)^^^            ",
"           <<<<::((^^^^^^^^^]           ",
"           <<<<::((^^^^^^^^^^           ",
"          :<<<<::((^^^^^^^^^^           ",
"          _<<<<::((^^^^^^^^^^           ",
"          !<<<::(((^^^^^^^^^~&          ",
"        =,'!<<::(((^^^^^^^])**          ",
"     ;,,;'',,,{_(((^^^^]~&****==        ",
"   ,,,,;&'',,,;;==************&*;       ",
"   ,,,;*%',,,;;;==************&%=;;     ",
"   &,,;&*',,,;;;==*************%=;,;=   ",
"   %&,;*%',,,;;;==************&%=;,,;;  ",
"    #%;=%,,,;;;===************$&;;,,,&  ",
"     %==&%,,;;;===***********&%*;;,,;#  ",
"    ..$&=&$;;;;===**********%%=;;;&##   ",
"     ..#&;=&$%====*******%$%*=;&###     ",
"      ..@%,;==&%$$$$$$$%&*=;*###+..     ",
"       ..+%,,,;;;;===;;;;%###+.....     ",
"        ...%;,,,,,,,,,&###+.......      ",
"         ...%%,,,,,*$##+........        ",
"          ...@$$####@........           ",
"           .....++........              ",
"            ...........                 ",
"              ......                    ",
"                                        ",
"                                        "};
